<?xml version="1.0" encoding="UTF-8" standalone="no"?>
<svg xmlns="http://www.w3.org/2000/svg"
   xmlns:inkscape="http://www.inkscape.org/namespaces/inkscape"
   xmlns:sodipodi="http://sodipodi.sourceforge.net/DTD/sodipodi-0.dtd"
   width="300"
   height="200"
   >
  <path
     id="path5054"
     d="m 158.70049,2.565868 c -1.79656,0.0036 -3.78925,0.859764 -6.03737,2.825221 -15.9865,13.976295 -14.47596,9.69272 -15.98028,13.045431 l -7.10364,15.841575 c 0,0 -14.10165,1.511965 -17.76554,7.452335 -3.66398,5.94037 3.87593,14.03853 0.8801,22.356738 -2.99584,8.31874 -28.248652,16.106525 -36.2868,18.681295 -8.038415,2.57468 -20.430997,-4.65592 -20.430997,-4.65592 0,0 -25.860591,-25.71123 -41.74129,-36.381935 -18.1514025,-12.196363 7.35667,29.103945 6.570637,60.598612 -0.497404,19.92511 -32.087689,66.75015 -11.0085557,58.66755 14.3141447,-5.48863 41.7412907,-17.71576 41.7412907,-17.71576 0,0 27.448484,1.62826 37.303016,5.57843 9.85542,3.95026 35.836039,5.05227 37.179429,13.07388 1.34304,8.02179 -8.87654,25.15378 -8.87654,25.15378 12.79649,-6.82296 26.47583,-18.54082 40.84865,-17.70064 6.07062,0.0936 19.56504,2.2515 30.20018,0.93691 10.63514,-1.31459 20.26563,-6.97908 23.084,-0.93691 2.81767,6.04217 -4.84058,22.24382 2.66546,25.15377 0,0 7.72163,-33.21059 30.19929,-37.26123 22.47765,-4.05099 42.76817,-21.33163 43.52655,-32.62024 0.75885,-11.28862 -75.23461,-5.83102 -70.54028,-11.83451 6.38269,-8.16316 81.23322,-12.80716 80.30947,-25.441837 C 296.5136,74.748627 281.75661,60.711875 269.00991,51.980246 256.2641,43.248351 237.96955,39.979481 223.71053,37.997728 209.45151,36.016597 197.67568,44.420867 184.63469,38.934726 173.42698,34.220038 169.67952,2.520791 158.69942,2.567023 Z"
     style="fill:none;stroke:#0bdef1;stroke-width:5.10824585;stroke-miterlimit:4;stroke-dasharray:none;stroke-opacity:1" />
  <path
     id="path3059"
     d="m 226.74868,54.804489 c 9.73807,0 17.64108,8.126167 17.64108,18.162072 0,10.035902 -7.90301,18.177182 -17.64108,18.177182 -9.73806,0 -17.62862,-8.14066 -17.62862,-18.177182 0,-10.035905 7.89074,-18.162072 17.62862,-18.162072 z"
     style="fill:none;stroke:#ffff00;stroke-width:15.3247366;stroke-miterlimit:4;stroke-dasharray:none;stroke-opacity:1" />
</svg>
